<svg width="38" height="38" viewBox="0 0 38 38" fill="none" xmlns="http://www.w3.org/2000/svg">
<path opacity="0.15" d="M7.72656 35.7362C7.72656 35.9295 8.01816 36.121 8.58469 36.2997C9.15123 36.4783 9.98162 36.6407 11.0284 36.7774C12.0753 36.9141 13.318 37.0226 14.6858 37.0966C16.0535 37.1706 17.5195 37.2087 18.9999 37.2087C20.4803 37.2087 21.9463 37.1706 23.314 37.0966C24.6818 37.0226 25.9245 36.9141 26.9713 36.7774C28.0182 36.6407 28.8486 36.4783 29.4151 36.2997C29.9816 36.121 30.2732 35.9295 30.2732 35.7362C30.2732 35.3456 29.0855 34.9711 26.9713 34.695C24.8572 34.4188 21.9898 34.2637 18.9999 34.2637C16.01 34.2637 13.1426 34.4188 11.0284 34.695C8.91429 34.9711 7.72656 35.3456 7.72656 35.7362Z" fill="#45413C"/>
<path d="M31.7144 10.1019L27.8986 6.28609C27.7146 6.10287 27.4655 6 27.2059 6C26.9462 6 26.6972 6.10287 26.5132 6.28609L19.0003 13.799L11.4873 6.28609C11.3034 6.10287 11.0543 6 10.7946 6C10.535 6 10.2859 6.10287 10.1019 6.28609L6.28609 10.1019C6.10287 10.2859 6 10.535 6 10.7946C6 11.0543 6.10287 11.3034 6.28609 11.4873L13.799 19.0003L6.28609 26.5132C6.10287 26.6972 6 26.9462 6 27.2059C6 27.4655 6.10287 27.7146 6.28609 27.8986L10.1019 31.7144C10.2859 31.8976 10.535 32.0005 10.7946 32.0005C11.0543 32.0005 11.3034 31.8976 11.4873 31.7144L19.0003 24.2015L26.5132 31.7144C26.6972 31.8976 26.9462 32.0005 27.2059 32.0005C27.4655 32.0005 27.7146 31.8976 27.8986 31.7144L31.7144 27.8986C31.8976 27.7146 32.0005 27.4655 32.0005 27.2059C32.0005 26.9462 31.8976 26.6972 31.7144 26.5132L24.2015 19.0003L31.7144 11.4873C31.8976 11.3034 32.0005 11.0543 32.0005 10.7946C32.0005 10.535 31.8976 10.2859 31.7144 10.1019Z" fill="#FF6242"/>
<path d="M7.12526 12.3503L10.0782 9.39734C10.1687 9.30567 10.2766 9.23288 10.3955 9.18321C10.5144 9.13353 10.642 9.10795 10.7709 9.10795C10.8998 9.10795 11.0273 9.13353 11.1462 9.18321C11.2652 9.23288 11.373 9.30567 11.4636 9.39734L19.0003 16.9023L26.5132 9.39734C26.6037 9.30567 26.7116 9.23288 26.8305 9.18321C26.9494 9.13353 27.077 9.10795 27.2059 9.10795C27.3348 9.10795 27.4623 9.13353 27.5812 9.18321C27.7002 9.23288 27.808 9.30567 27.8986 9.39734L30.8753 12.3503L31.7382 11.4873C31.9214 11.3034 32.0243 11.0543 32.0243 10.7946C32.0243 10.535 31.9214 10.2859 31.7382 10.1019L27.8986 6.28609C27.7146 6.10287 27.4655 6 27.2059 6C26.9462 6 26.6972 6.10287 26.5132 6.28609L19.0003 13.799L11.4873 6.28609C11.3034 6.10287 11.0543 6 10.7946 6C10.535 6 10.2859 6.10287 10.1019 6.28609L6.28609 10.1019C6.10287 10.2859 6 10.535 6 10.7946C6 11.0543 6.10287 11.3034 6.28609 11.4873L7.12526 12.3503Z" fill="#FF866E"/>
<path d="M31.7144 10.1019L27.8986 6.28609C27.7146 6.10287 27.4655 6 27.2059 6C26.9462 6 26.6972 6.10287 26.5132 6.28609L19.0003 13.799L11.4873 6.28609C11.3034 6.10287 11.0543 6 10.7946 6C10.535 6 10.2859 6.10287 10.1019 6.28609L6.28609 10.1019C6.10287 10.2859 6 10.535 6 10.7946C6 11.0543 6.10287 11.3034 6.28609 11.4873L13.799 19.0003L6.28609 26.5132C6.10287 26.6972 6 26.9462 6 27.2059C6 27.4655 6.10287 27.7146 6.28609 27.8986L10.1019 31.7144C10.2859 31.8976 10.535 32.0005 10.7946 32.0005C11.0543 32.0005 11.3034 31.8976 11.4873 31.7144L19.0003 24.2015L26.5132 31.7144C26.6972 31.8976 26.9462 32.0005 27.2059 32.0005C27.4655 32.0005 27.7146 31.8976 27.8986 31.7144L31.7144 27.8986C31.8976 27.7146 32.0005 27.4655 32.0005 27.2059C32.0005 26.9462 31.8976 26.6972 31.7144 26.5132L24.2015 19.0003L31.7144 11.4873C31.8976 11.3034 32.0005 11.0543 32.0005 10.7946C32.0005 10.535 31.8976 10.2859 31.7144 10.1019Z" stroke="#45413C" stroke-width="0.791667" stroke-linecap="round" stroke-linejoin="round"/>
</svg>
