<svg width="28" height="28" viewBox="0 0 28 28" fill="none" xmlns="http://www.w3.org/2000/svg">
<g clip-path="url(#clip0_59_647)">
<path d="M1.70215 9.18668V4.90851C1.70246 4.62518 1.81515 4.35354 2.01549 4.15319C2.21584 3.95284 2.48748 3.84015 2.77082 3.83984H25.2292C25.3696 3.83969 25.5087 3.86722 25.6385 3.92086C25.7683 3.97449 25.8862 4.05319 25.9856 4.15244C26.0849 4.25169 26.1637 4.36955 26.2175 4.49928C26.2713 4.62901 26.299 4.76807 26.299 4.90851V9.18668H1.70215Z" fill="#FF808C"/>
<path d="M1.70215 6.51268V4.90851C1.70246 4.62518 1.81515 4.35354 2.01549 4.15319C2.21584 3.95284 2.48748 3.84015 2.77082 3.83984H25.2292C25.3696 3.83969 25.5087 3.86722 25.6385 3.92086C25.7683 3.97449 25.8862 4.05319 25.9856 4.15244C26.0849 4.25169 26.1637 4.36955 26.2175 4.49928C26.2713 4.62901 26.299 4.76807 26.299 4.90851V6.51268H1.70215Z" fill="#FFBFC5"/>
<path d="M1.70215 9.1875H26.299V25.2292C26.299 25.5129 26.1863 25.785 25.9856 25.9857C25.785 26.1863 25.5129 26.299 25.2292 26.299H2.77082C2.48728 26.2987 2.21546 26.1858 2.01508 25.9852C1.8147 25.7846 1.70215 25.5127 1.70215 25.2292V9.1875Z" fill="white"/>
<path d="M7.04898 1.70312V7.04996M20.9521 1.70312V7.04996M1.70215 9.18846H26.299M8.11882 21.4875H14.7365H20.9521M25.2291 3.84163H2.77082C2.48748 3.84193 2.21584 3.95462 2.01549 4.15497C1.81515 4.35532 1.70246 4.62696 1.70215 4.91029V25.2301C1.70215 25.8205 2.18048 26.3 2.77082 26.3H25.2291C25.8195 26.3 26.299 25.8216 26.299 25.2301V4.91029C26.2987 4.62676 26.1858 4.35494 25.9852 4.15456C25.7846 3.95418 25.5127 3.84162 25.2291 3.84163Z" stroke="#191919" stroke-width="1.58333" stroke-linecap="round" stroke-linejoin="round"/>
</g>
<defs>
<clipPath id="clip0_59_647">
<rect width="28" height="28" fill="white"/>
</clipPath>
</defs>
</svg>
