<svg width="30" height="30" viewBox="0 0 30 30" fill="none" xmlns="http://www.w3.org/2000/svg">
<path d="M20.3569 17.1426C21.2093 17.1426 22.0269 17.4812 22.6297 18.084C23.2325 18.6868 23.5711 19.5044 23.5711 20.3569V21.1229C23.5711 24.9554 19.0604 27.8569 12.8569 27.8569C6.65329 27.8569 2.14258 25.1065 2.14258 21.1229V20.3569C2.14258 19.5044 2.48123 18.6868 3.08402 18.084C3.68682 17.4812 4.50438 17.1426 5.35686 17.1426H20.3569Z" fill="url(#paint0_linear_59_672)"/>
<path d="M20.3569 17.1426C21.2093 17.1426 22.0269 17.4812 22.6297 18.084C23.2325 18.6868 23.5711 19.5044 23.5711 20.3569V21.1229C23.5711 24.9554 19.0604 27.8569 12.8569 27.8569C6.65329 27.8569 2.14258 25.1065 2.14258 21.1229V20.3569C2.14258 19.5044 2.48123 18.6868 3.08402 18.084C3.68682 17.4812 4.50438 17.1426 5.35686 17.1426H20.3569Z" fill="url(#paint1_linear_59_672)"/>
<path d="M20.3569 17.1426C21.2093 17.1426 22.0269 17.4812 22.6297 18.084C23.2325 18.6868 23.5711 19.5044 23.5711 20.3569V21.1229C23.5711 24.9554 19.0604 27.8569 12.8569 27.8569C6.65329 27.8569 2.14258 25.1065 2.14258 21.1229V20.3569C2.14258 19.5044 2.48123 18.6868 3.08402 18.084C3.68682 17.4812 4.50438 17.1426 5.35686 17.1426H20.3569Z" fill="url(#paint2_radial_59_672)" fill-opacity="0.5"/>
<path d="M12.8573 2.14258C13.7015 2.14258 14.5374 2.30886 15.3174 2.63192C16.0973 2.95499 16.806 3.42851 17.403 4.02546C17.9999 4.62241 18.4734 5.33109 18.7965 6.11104C19.1196 6.89099 19.2859 7.72694 19.2859 8.57115C19.2859 9.41536 19.1196 10.2513 18.7965 11.0313C18.4734 11.8112 17.9999 12.5199 17.403 13.1168C16.806 13.7138 16.0973 14.1873 15.3174 14.5104C14.5374 14.8334 13.7015 14.9997 12.8573 14.9997C11.1523 14.9997 9.51719 14.3224 8.3116 13.1168C7.10601 11.9112 6.42871 10.2761 6.42871 8.57115C6.42871 6.86619 7.10601 5.23105 8.3116 4.02546C9.51719 2.81987 11.1523 2.14258 12.8573 2.14258Z" fill="url(#paint3_linear_59_672)"/>
<path d="M28.9286 21.9643C28.9286 23.8113 28.1948 25.5827 26.8888 26.8888C25.5827 28.1948 23.8113 28.9286 21.9643 28.9286C20.1172 28.9286 18.3458 28.1948 17.0398 26.8888C15.7337 25.5827 15 23.8113 15 21.9643C15 20.1172 15.7337 18.3458 17.0398 17.0398C18.3458 15.7337 20.1172 15 21.9643 15C23.8113 15 25.5827 15.7337 26.8888 17.0398C28.1948 18.3458 28.9286 20.1172 28.9286 21.9643Z" fill="url(#paint4_linear_59_672)"/>
<path fill-rule="evenodd" clip-rule="evenodd" d="M21.964 17.1426C22.1061 17.1426 22.2423 17.199 22.3428 17.2995C22.4433 17.4 22.4997 17.5362 22.4997 17.6783V21.4283H26.2497C26.3918 21.4283 26.5281 21.4847 26.6285 21.5852C26.729 21.6857 26.7854 21.8219 26.7854 21.964C26.7854 22.1061 26.729 22.2423 26.6285 22.3428C26.5281 22.4433 26.3918 22.4997 26.2497 22.4997H22.4997V26.2497C22.4997 26.3918 22.4433 26.5281 22.3428 26.6285C22.2423 26.729 22.1061 26.7854 21.964 26.7854C21.8219 26.7854 21.6857 26.729 21.5852 26.6285C21.4847 26.5281 21.4283 26.3918 21.4283 26.2497V22.4997H17.6783C17.5362 22.4997 17.4 22.4433 17.2995 22.3428C17.199 22.2423 17.1426 22.1061 17.1426 21.964C17.1426 21.8219 17.199 21.6857 17.2995 21.5852C17.4 21.4847 17.5362 21.4283 17.6783 21.4283H21.4283V17.6783C21.4283 17.5362 21.4847 17.4 21.5852 17.2995C21.6857 17.199 21.8219 17.1426 21.964 17.1426Z" fill="white"/>
<defs>
<linearGradient id="paint0_linear_59_672" x1="7.23829" y1="18.5665" x2="10.7001" y2="29.6215" gradientUnits="userSpaceOnUse">
<stop offset="0.125" stop-color="#9C6CFE"/>
<stop offset="1" stop-color="#7A41DC"/>
</linearGradient>
<linearGradient id="paint1_linear_59_672" x1="12.8569" y1="15.8665" x2="17.704" y2="33.979" gradientUnits="userSpaceOnUse">
<stop stop-color="#885EDB" stop-opacity="0"/>
<stop offset="1" stop-color="#E362F8"/>
</linearGradient>
<radialGradient id="paint2_radial_59_672" cx="0" cy="0" r="1" gradientUnits="userSpaceOnUse" gradientTransform="translate(21.964 21.964) rotate(90) scale(12.8571)">
<stop offset="0.493" stop-color="#30116E"/>
<stop offset="0.912" stop-color="#30116E" stop-opacity="0"/>
</radialGradient>
<linearGradient id="paint3_linear_59_672" x1="9.48657" y1="3.85151" x2="16.0384" y2="14.3151" gradientUnits="userSpaceOnUse">
<stop offset="0.125" stop-color="#9C6CFE"/>
<stop offset="1" stop-color="#7A41DC"/>
</linearGradient>
<linearGradient id="paint4_linear_59_672" x1="15.4971" y1="17.6121" x2="25.11" y2="27.5989" gradientUnits="userSpaceOnUse">
<stop stop-color="#52D17C"/>
<stop offset="1" stop-color="#22918B"/>
</linearGradient>
</defs>
</svg>
